<?xml version="1.0" encoding="UTF-8"?>
<svg id="Layer_1" xmlns="http://www.w3.org/2000/svg" xmlns:xlink="http://www.w3.org/1999/xlink" viewBox="0 0 606.07 443.82">
  <defs>
    <style>
      .cls-1 {
        fill: #646464;
      }

      .cls-2 {
        stroke: #231f20;
        stroke-miterlimit: 10;
      }

      .cls-2, .cls-3 {
        fill: #969696;
      }

      .cls-4 {
        fill: #fff;
      }

      .cls-5 {
        opacity: .8;
      }

      .cls-6 {
        fill: #c8c8c8;
      }

      .cls-7 {
        clip-path: url(#clippath);
      }

      .cls-8 {
        opacity: .5;
      }
    </style>
    <clipPath id="clippath">
      <ellipse class="cls-4" cx="304.88" cy="244.5" rx="269.44" ry="168.95"/>
    </clipPath>
  </defs>
  <g>
    <ellipse class="cls-4" cx="304.88" cy="244.5" rx="269.44" ry="168.95"/>
    <g class="cls-7">
      <rect class="cls-2" x=".5" y=".5" width="605.07" height="442.82"/>
    </g>
  </g>
  <g class="cls-8">
    <g class="cls-5">
      <path d="M126.35,338.04c-6.93,0-12.55-15.3-12.55-34.17s5.62-34.17,12.55-34.17l25.28-3.75c6.93,0,12.55,15.3,12.55,34.17s-5.62,34.17-12.55,34.17l-25.28,3.75Z"/>
      <path d="M249.38,341.53c-18.36,0-33.25-18.7-33.25-41.77s14.89-41.77,33.25-41.77h23.9c18.36,0,33.25,18.7,33.25,41.77s-14.89,41.77-33.25,41.77h-23.9Z"/>
      <ellipse cx="423.32" cy="284.99" rx="40.71" ry="38.81"/>
      <path d="M130.15,169.85l-8.73,53.95c-.84,5.17-3.56,9.85-7.65,13.13l-1.42,1.14c-5.07,4.06-8.01,10.2-8.01,16.69v48.79h0c3.84,2.58,9.04.11,9.47-4.5.7-7.57,2.05-17.11,4.58-20.81,1.62-2.37,7.33-7.28,9.86-5.91,7.78,4.22,7.05,19.32,5.7,28.91-.61,4.34,2.77,8.22,7.16,8.22h80.77s-2.53-17.72,10.97-37.12c4.15-5.97,13.14-13.92,27.84-8.44,12.64,4.71,14.34,17.3,14.34,30.38,0,15.85,9.28,15.19,9.28,15.19l168.03-14.2c7.53-.64,13.93-5.74,16.25-12.93,4.97-15.38,11-43.36,1.34-70.45-3.56-9.97-28.82-23.78-38.9-28.96-2.52-1.3-5.12-2.43-7.79-3.38l-14.33-5.14c-7.56-2.71-14.26-7.4-19.39-13.59l-19.25-23.2c-9.58-11.55-23.75-18.3-38.75-18.49l-98.77-1.22c-18.23-.23-36.22,4.1-52.35,12.6l-35.36,18.61c-7.95,4.19-13.47,11.87-14.91,20.74Z"/>
    </g>
    <polygon class="cls-3" points="331.46 204.62 442.24 205.69 339.15 211.89 331.46 204.62"/>
    <polygon class="cls-3" points="343.96 219.89 442.24 215.7 347.1 225.52 343.96 219.89"/>
    <polygon class="cls-3" points="304.98 246.6 462.97 240.07 462.97 256.94 315.59 265.17 304.98 246.6"/>
    <path class="cls-3" d="M469.09,241.12l-1.27,14.77h7.25l3.3-14.77h-9.28Z"/>
    <polygon class="cls-3" points="280.93 244.5 285.48 264.75 304.88 264.75 292.9 246.18 280.93 244.5"/>
    <circle class="cls-4" cx="321.4" cy="219.19" r="13.5"/>
    <circle class="cls-4" cx="449.68" cy="213.68" r="13.5"/>
    <polygon class="cls-3" points="124 232.68 250.56 198.09 261.33 204.87 124 232.68"/>
    <path class="cls-3" d="M116.23,244.61l134.72-22.82c6.06-1.03,12.01,2.32,14.28,8.03l19.52,49.1c3.73,9.4,13.05,15.35,23.15,14.8l66.7-3.66,89.44-5.06-11.69,10.27-65.63,6.73-65.18,6.21c-8.68.83-22.42,2.36-30.35-1.27,0,0-13.26-8.43-16.16-12.66-4.04-5.92-6.28-20.84-13.34-25.38-5.49-3.53-19.99-5.23-26.44.85-3.7,3.48-11.69,15.25-11.69,15.25l-88.79,3.43s.08-26.32-6.52-30.43c-8.12-5.06-13.45,2.96-15.12,6.75-2.14,4.84-6.19,20.25-6.19,20.25v-29.38c0-5.45,3.93-10.1,9.3-11.01Z"/>
    <path class="cls-6" d="M139.86,168.38l-.79,39.06c-.05,2.26,2.04,3.97,4.25,3.47l24.54-5.51c1.41-.32,2.48-1.47,2.69-2.9l6.81-47.19c.39-2.72-2.36-4.8-4.87-3.68l-30.57,13.64c-1.23.55-2.04,1.76-2.07,3.11Z"/>
    <path class="cls-6" d="M190.17,145.27c-.74.32-1.24,1.03-1.3,1.84l-1.57,23.15-1.93,28.39c-.1,1.41,1.16,2.53,2.55,2.28l38.07-6.87c1.03-.19,1.78-1.09,1.78-2.14v-2.22c0-1.45-1.4-2.49-2.79-2.08l-13.78,4.08c-3.66.64-7.15-1.81-7.78-5.48l-.91-5.33c-.05-.27-.05-.55,0-.82,1.06-4.92,5.88-8.13,10.87-7.16l10.02,1.95c.08.02.17.03.26.03h0c1.74.13,2.91-1.74,2.04-3.25l-18.38-31.78c-.55-.96-1.73-1.34-2.75-.9l-14.42,6.29Z"/>
    <path class="cls-6" d="M227.51,137.81l16.85,34.37c.98,2,3.05,3.23,5.28,3.13l123.28-5.54c4.98-.22,7.21-6.36,3.53-9.72l-31.47-28.83c-1.03-.95-2.38-1.47-3.78-1.47h-108.65c-4.14,0-6.85,4.34-5.03,8.06Z"/>
    <circle class="cls-3" cx="285.3" cy="215.26" r="10.27"/>
    <polygon class="cls-3" points="423.32 188.12 261.33 183.23 388.63 176.01 423.32 188.12"/>
    <path class="cls-1" d="M446.67,317.06c-6.61,4.42-14.66,7.03-23.35,7.03s-16.74-2.6-23.35-7.03h-96.33c-5.19,14.58-16.83,24.74-30.36,24.74h-23.9c-11.83,0-22.22-7.77-28.11-19.47l-26.97,1.75-34.66,2.6c-2.17,4.92-4.97,7.89-8.02,7.89l-12.64,1.87,136.04,16.33,96.19-5.91,103.86-8.55,48.86-10.68-77.27-10.58Z"/>
  </g>
</svg>