<svg id="Layer_1" xmlns="http://www.w3.org/2000/svg" xmlns:xlink="http://www.w3.org/1999/xlink" viewBox="0 0 700 700">
  <defs>
    <style>
      .cls-1 {
        fill: #fff;
      }

      .cls-2 {
        fill: none;
      }

      .cls-3 {
        clip-path: url(#clippath-1);
      }

      .cls-4 {
        clip-path: url(#clippath);
      }
    </style>
    <clipPath id="clippath">
      <rect class="cls-2" x="85.21" y="90" width="520" height="520"/>
    </clipPath>
    <clipPath id="clippath-1">
      <rect class="cls-2" x="85.21" y="90" width="520" height="520"/>
    </clipPath>
  </defs>
  <g class="cls-4">
    <g class="cls-3">
      <path class="cls-1" d="M238.06,93.09c-27.53,1.3-46.33,5.71-62.76,12.15-17.01,6.63-31.42,15.52-45.77,29.92-14.36,14.41-23.18,28.85-29.76,45.88-6.37,16.47-10.69,35.28-11.9,62.82-1.21,27.59-1.48,36.4-1.35,106.65.13,70.24.44,79.06,1.76,106.66,1.32,27.52,5.71,46.31,12.15,62.75,6.64,17.01,15.52,31.42,29.92,45.77,14.4,14.35,28.85,23.16,45.88,29.75,16.45,6.36,35.27,10.69,62.81,11.9,27.59,1.22,36.4,1.48,106.64,1.35,70.27-.13,79.08-.44,106.67-1.75,27.53-1.32,46.31-5.72,62.76-12.15,17.01-6.66,31.42-15.52,45.77-29.92,14.34-14.4,23.16-28.85,29.74-45.88,6.37-16.45,10.7-35.27,11.9-62.79,1.21-27.61,1.49-36.43,1.36-106.67-.13-70.25-.45-79.05-1.76-106.64-1.31-27.54-5.72-46.33-12.15-62.77-6.65-17.01-15.51-31.41-29.92-45.77-14.4-14.34-28.85-23.18-45.88-29.74-16.46-6.37-35.27-10.71-62.81-11.9-27.59-1.22-36.4-1.49-106.66-1.36-70.24.13-79.05.44-106.65,1.76M241.08,560.76c-25.22-1.1-38.92-5.29-48.05-8.8-12.09-4.68-20.71-10.28-29.79-19.3-9.06-9.04-14.69-17.65-19.4-29.71-3.55-9.13-7.81-22.81-8.99-48.03-1.28-27.27-1.58-35.45-1.7-104.53-.13-69.06.12-77.24,1.31-104.53,1.08-25.21,5.3-38.92,8.8-48.04,4.68-12.1,10.27-20.71,19.3-29.79,9.04-9.08,17.64-14.69,29.71-19.41,9.12-3.56,22.8-7.8,48.01-8.99,27.28-1.29,35.46-1.57,104.52-1.7,69.08-.13,77.26.11,104.55,1.31,25.2,1.1,38.92,5.27,48.03,8.8,12.1,4.68,20.72,10.25,29.79,19.3,9.07,9.04,14.69,17.63,19.41,29.72,3.56,9.09,7.8,22.79,8.99,48,1.3,27.28,1.59,35.47,1.72,104.53.13,69.08-.12,77.26-1.32,104.54-1.1,25.22-5.28,38.93-8.8,48.06-4.68,12.08-10.27,20.7-19.3,29.78-9.04,9.04-17.64,14.69-29.71,19.4-9.1,3.55-22.8,7.8-48,8.99-27.28,1.28-35.46,1.58-104.54,1.7-69.06.13-77.23-.13-104.52-1.31M451.98,211.71c.03,17.13,13.96,31.01,31.1,30.97,17.14-.03,31.01-13.96,30.99-31.09-.03-17.13-13.96-31.01-31.11-30.98-17.14.03-31.01,13.96-30.98,31.1M212.37,350.25c.14,73.37,59.73,132.72,133.08,132.57,73.36-.14,132.74-59.71,132.6-133.08-.14-73.34-59.74-132.72-133.11-132.58-73.35.14-132.71,59.74-132.57,133.09M258.97,350.16c-.08-47.62,38.46-86.3,86.07-86.39,47.62-.09,86.31,38.43,86.4,86.06.09,47.63-38.45,86.3-86.08,86.4-47.61.09-86.3-38.44-86.39-86.07"/>
    </g>
  </g>
</svg>