<svg id="Layer_1" xmlns="http://www.w3.org/2000/svg" viewBox="0 0 700 700">
  <defs>
    <style>
      .cls-1 {
        fill: none;
        stroke: #000;
        stroke-miterlimit: 10;
        stroke-width: 5.11px;
      }

      .cls-2 {
        fill: #fff;
      }

      .cls-3 {
        fill: #231f20;
      }
    </style>
  </defs>
  <rect class="cls-3" x="5" y="41.53" width="585.13" height="616.95" rx="42.06" ry="42.06"/>
  <g>
    <circle class="cls-2" cx="136.41" cy="178.9" r="52.54"/>
    <rect class="cls-2" x="92.69" y="271.06" width="86.2" height="293.07"/>
    <path class="cls-2" d="M233.84,271.06h82.97v40.94s3.8-19.65,39.64-37.5c24.73-12.32,41.65-10.27,56.26-8.84,54.95,5.39,79.73,31.25,90.51,93.74v204.72h-85.12l-1.08-161.44c-.18-16.33-4.49-40.2-18.68-50.28-6.82-4.85-18.14-7-29.81-7-7.35,0-15.89,1.82-27.05,8.42-2.63,1.56-7.71,7.72-10.42,12.29-5.82,9.81-8.86,23.23-9.01,31.7l-2,166.32h-86.2v-293.07Z"/>
  </g>
  <g>
    <ellipse class="cls-1" cx="657.29" cy="618.73" rx="37.71" ry="39.75"/>
    <path d="M668.9,641.19h7.57l-10.49-19.91c.81-.25,1.59-.56,2.32-.96,1.97-1.09,3.51-2.63,4.61-4.6,1.1-1.97,1.66-4.27,1.66-6.89s-.55-4.95-1.64-6.91c-1.09-1.96-2.63-3.49-4.61-4.58-1.98-1.09-4.29-1.64-6.94-1.64h-18.04v45.49h6.38v-19.23h9.49l9.7,19.23ZM649.7,601.77h11.91c1.86,0,3.35.65,4.47,1.94,1.13,1.29,1.69,3,1.69,5.13s-.56,3.83-1.69,5.13c-1.12,1.29-2.62,1.94-4.47,1.94h-11.91v-14.13Z"/>
  </g>
</svg>