<svg id="Layer_1" xmlns="http://www.w3.org/2000/svg" xmlns:xlink="http://www.w3.org/1999/xlink" viewBox="0 0 700 700">
  <defs>
    <style>
      .cls-1 {
        fill: #fff;
      }

      .cls-2 {
        fill: none;
      }

      .cls-3 {
        fill: #e51e27;
      }
    </style>
    <clipPath id="clippath">
      <rect class="cls-2" x="-90.87" y="664.13" width="881.73" height="881.73"/>
    </clipPath>
  </defs>
  <path class="cls-1" d="M624.94,350.06c0,151.84-123.09,274.94-274.94,274.94S75.06,501.91,75.06,350.06,198.16,75.13,350,75.13s274.94,123.09,274.94,274.94h0Z"/>
  <path class="cls-3" d="M247.93,605.28c-3.44-31.27-1.03-61.17,5.84-90.04l27.49-118.57c-4.47-14.43-7.9-30.93-7.9-47.43,0-38.49,18.56-65.98,47.77-65.98,20.28,0,35.06,14.09,35.06,41.24,0,8.59-1.72,18.21-5.16,29.21l-12.03,39.52c-2.41,7.56-3.44,14.78-3.44,20.96,0,27.49,20.96,42.96,47.77,42.96,47.77,0,81.79-49.49,81.79-113.76,0-71.48-46.74-117.19-115.82-117.19-76.98,0-125.78,50.18-125.78,119.94,0,28.18,8.59,54.3,25.43,72.17-5.5,9.28-11.34,11-20.28,11-27.49,0-53.61-38.84-53.61-91.76,0-91.42,73.2-164.27,175.96-164.27,107.91,0,175.61,75.26,175.61,168.05s-65.98,163.59-137.12,163.59c-28.18,0-52.93-12.03-70.11-33.68l-14.09,57.05c-7.56,29.55-18.9,57.39-37.12,84.2,25.78,7.91,51.21,12.37,81.79,12.37,151.9,0,274.94-123.03,274.94-274.94S501.9,75,350,75,75.06,198.03,75.06,349.94c0,115.13,70.8,214.45,172.87,255.35"/>
</svg>